<mxfile host="www.draw.io" modified="2020-04-02T05:33:19.413Z" agent="5.0 (Macintosh; Intel Mac OS X 10_13_6) AppleWebKit/537.36 (KHTML, like Gecko) Chrome/80.0.3987.149 Safari/537.36" etag="CGEKBGTCV9wnI43UUtNf" version="12.9.4" type="github">
  <diagram id="WmNezU53q_m9Ipa1HGL5" name="Page-1">
    <mxGraphModel dx="892" dy="526" grid="1" gridSize="10" guides="1" tooltips="1" connect="1" arrows="1" fold="1" page="1" pageScale="1" pageWidth="827" pageHeight="1169" math="0" shadow="0">
      <root>
        <mxCell id="0" />
        <mxCell id="1" parent="0" />
        <mxCell id="oan6AdR5b0zMUQuaqNL_-1" value="DB&lt;br&gt;Oracle" style="shape=cylinder;whiteSpace=wrap;html=1;boundedLbl=1;backgroundOutline=1;" parent="1" vertex="1">
          <mxGeometry x="720" y="260" width="60" height="80" as="geometry" />
        </mxCell>
        <mxCell id="oan6AdR5b0zMUQuaqNL_-3" value="DB&lt;br&gt;MySQL" style="shape=cylinder;whiteSpace=wrap;html=1;boundedLbl=1;backgroundOutline=1;" parent="1" vertex="1">
          <mxGeometry x="280" y="260" width="60" height="60" as="geometry" />
        </mxCell>
        <mxCell id="oan6AdR5b0zMUQuaqNL_-5" value="&lt;font style=&quot;font-size: 18px&quot;&gt;总部BOH&lt;/font&gt;" style="rounded=1;whiteSpace=wrap;html=1;" parent="1" vertex="1">
          <mxGeometry x="510" y="170" width="120" height="60" as="geometry" />
        </mxCell>
        <mxCell id="oan6AdR5b0zMUQuaqNL_-7" value="Tomcat" style="text;html=1;strokeColor=none;fillColor=none;align=center;verticalAlign=middle;whiteSpace=wrap;rounded=0;" parent="1" vertex="1">
          <mxGeometry x="590" y="170" width="40" height="20" as="geometry" />
        </mxCell>
        <mxCell id="oan6AdR5b0zMUQuaqNL_-8" value="文件系统" style="text;html=1;strokeColor=none;fillColor=none;align=center;verticalAlign=middle;whiteSpace=wrap;rounded=0;" parent="1" vertex="1">
          <mxGeometry x="510" y="210" width="50" height="20" as="geometry" />
        </mxCell>
        <mxCell id="oan6AdR5b0zMUQuaqNL_-9" value="" style="endArrow=classic;html=1;exitX=0.937;exitY=0.973;exitDx=0;exitDy=0;exitPerimeter=0;" parent="1" source="oan6AdR5b0zMUQuaqNL_-5" target="oan6AdR5b0zMUQuaqNL_-1" edge="1">
          <mxGeometry width="50" height="50" relative="1" as="geometry">
            <mxPoint x="500" y="350" as="sourcePoint" />
            <mxPoint x="550" y="300" as="targetPoint" />
          </mxGeometry>
        </mxCell>
        <mxCell id="oan6AdR5b0zMUQuaqNL_-10" value="CTF" style="rounded=1;whiteSpace=wrap;html=1;" parent="1" vertex="1">
          <mxGeometry x="570" y="330" width="120" height="60" as="geometry" />
        </mxCell>
        <mxCell id="oan6AdR5b0zMUQuaqNL_-11" value="Tomcat" style="text;html=1;strokeColor=none;fillColor=none;align=center;verticalAlign=middle;whiteSpace=wrap;rounded=0;" parent="1" vertex="1">
          <mxGeometry x="650" y="330" width="40" height="20" as="geometry" />
        </mxCell>
        <mxCell id="oan6AdR5b0zMUQuaqNL_-12" value="" style="endArrow=classic;html=1;entryX=0.15;entryY=0.95;entryDx=0;entryDy=0;entryPerimeter=0;exitX=1;exitY=0.5;exitDx=0;exitDy=0;" parent="1" source="oan6AdR5b0zMUQuaqNL_-10" target="oan6AdR5b0zMUQuaqNL_-1" edge="1">
          <mxGeometry width="50" height="50" relative="1" as="geometry">
            <mxPoint x="500" y="350" as="sourcePoint" />
            <mxPoint x="550" y="300" as="targetPoint" />
          </mxGeometry>
        </mxCell>
        <mxCell id="oan6AdR5b0zMUQuaqNL_-13" value="门店POS、HHT" style="rounded=0;whiteSpace=wrap;html=1;" parent="1" vertex="1">
          <mxGeometry x="514" y="500" width="156" height="60" as="geometry" />
        </mxCell>
        <mxCell id="oan6AdR5b0zMUQuaqNL_-14" value="&lt;font style=&quot;font-size: 10px&quot;&gt;上报营业数据&lt;br&gt;（*.zip SQL语句）&lt;/font&gt;" style="endArrow=classic;html=1;exitX=0.75;exitY=0;exitDx=0;exitDy=0;entryX=0.5;entryY=1;entryDx=0;entryDy=0;" parent="1" source="oan6AdR5b0zMUQuaqNL_-13" target="oan6AdR5b0zMUQuaqNL_-10" edge="1">
          <mxGeometry x="-0.0908" y="1" width="50" height="50" relative="1" as="geometry">
            <mxPoint x="630" y="510" as="sourcePoint" />
            <mxPoint x="630" y="400" as="targetPoint" />
            <mxPoint as="offset" />
          </mxGeometry>
        </mxCell>
        <mxCell id="oan6AdR5b0zMUQuaqNL_-15" value="" style="endArrow=classic;html=1;entryX=0.113;entryY=-0.017;entryDx=0;entryDy=0;entryPerimeter=0;exitX=0.42;exitY=1.034;exitDx=0;exitDy=0;exitPerimeter=0;" parent="1" source="oan6AdR5b0zMUQuaqNL_-8" target="oan6AdR5b0zMUQuaqNL_-13" edge="1">
          <mxGeometry width="50" height="50" relative="1" as="geometry">
            <mxPoint x="500" y="410" as="sourcePoint" />
            <mxPoint x="550" y="360" as="targetPoint" />
          </mxGeometry>
        </mxCell>
        <mxCell id="oan6AdR5b0zMUQuaqNL_-17" value="下发数据&lt;br&gt;（*.zip XML文件）" style="text;html=1;align=center;verticalAlign=middle;resizable=0;points=[];labelBackgroundColor=#ffffff;" parent="oan6AdR5b0zMUQuaqNL_-15" vertex="1" connectable="0">
          <mxGeometry x="0.555" relative="1" as="geometry">
            <mxPoint x="-1.49" y="10.99" as="offset" />
          </mxGeometry>
        </mxCell>
        <mxCell id="oan6AdR5b0zMUQuaqNL_-18" value="" style="endArrow=none;dashed=1;html=1;" parent="1" edge="1">
          <mxGeometry width="50" height="50" relative="1" as="geometry">
            <mxPoint x="460" y="430" as="sourcePoint" />
            <mxPoint x="460" y="120" as="targetPoint" />
          </mxGeometry>
        </mxCell>
        <mxCell id="oan6AdR5b0zMUQuaqNL_-19" value="" style="endArrow=none;dashed=1;html=1;" parent="1" edge="1">
          <mxGeometry width="50" height="50" relative="1" as="geometry">
            <mxPoint x="460" y="120" as="sourcePoint" />
            <mxPoint x="820" y="120" as="targetPoint" />
          </mxGeometry>
        </mxCell>
        <mxCell id="oan6AdR5b0zMUQuaqNL_-20" value="" style="endArrow=none;dashed=1;html=1;" parent="1" edge="1">
          <mxGeometry width="50" height="50" relative="1" as="geometry">
            <mxPoint x="820" y="430" as="sourcePoint" />
            <mxPoint x="820" y="120" as="targetPoint" />
          </mxGeometry>
        </mxCell>
        <mxCell id="oan6AdR5b0zMUQuaqNL_-21" value="" style="endArrow=none;dashed=1;html=1;" parent="1" edge="1">
          <mxGeometry width="50" height="50" relative="1" as="geometry">
            <mxPoint x="460" y="430" as="sourcePoint" />
            <mxPoint x="820" y="430" as="targetPoint" />
          </mxGeometry>
        </mxCell>
        <mxCell id="oan6AdR5b0zMUQuaqNL_-22" value="&lt;font style=&quot;font-size: 18px&quot;&gt;私有云&lt;/font&gt;" style="text;html=1;strokeColor=none;fillColor=none;align=center;verticalAlign=middle;whiteSpace=wrap;rounded=0;" parent="1" vertex="1">
          <mxGeometry x="470" y="130" width="60" height="20" as="geometry" />
        </mxCell>
        <mxCell id="oan6AdR5b0zMUQuaqNL_-23" value="&lt;font style=&quot;font-size: 14px&quot;&gt;BaseMember&lt;/font&gt;" style="rounded=1;whiteSpace=wrap;html=1;" parent="1" vertex="1">
          <mxGeometry x="220" y="170" width="120" height="60" as="geometry" />
        </mxCell>
        <mxCell id="oan6AdR5b0zMUQuaqNL_-24" value="&lt;font style=&quot;font-size: 14px&quot;&gt;OpenAPI&lt;/font&gt;" style="rounded=1;whiteSpace=wrap;html=1;" parent="1" vertex="1">
          <mxGeometry x="220" y="350" width="120" height="60" as="geometry" />
        </mxCell>
        <mxCell id="oan6AdR5b0zMUQuaqNL_-26" value="" style="endArrow=classic;html=1;exitX=0.5;exitY=0;exitDx=0;exitDy=0;entryX=0.5;entryY=1;entryDx=0;entryDy=0;" parent="1" source="oan6AdR5b0zMUQuaqNL_-24" target="oan6AdR5b0zMUQuaqNL_-3" edge="1">
          <mxGeometry width="50" height="50" relative="1" as="geometry">
            <mxPoint x="440" y="350" as="sourcePoint" />
            <mxPoint x="490" y="300" as="targetPoint" />
          </mxGeometry>
        </mxCell>
        <mxCell id="oan6AdR5b0zMUQuaqNL_-27" value="" style="endArrow=classic;html=1;exitX=0.5;exitY=1;exitDx=0;exitDy=0;entryX=0.5;entryY=0;entryDx=0;entryDy=0;" parent="1" source="oan6AdR5b0zMUQuaqNL_-23" target="oan6AdR5b0zMUQuaqNL_-3" edge="1">
          <mxGeometry width="50" height="50" relative="1" as="geometry">
            <mxPoint x="440" y="350" as="sourcePoint" />
            <mxPoint x="490" y="300" as="targetPoint" />
          </mxGeometry>
        </mxCell>
        <mxCell id="oan6AdR5b0zMUQuaqNL_-28" value="Feign" style="endArrow=classic;html=1;exitX=0.193;exitY=-0.04;exitDx=0;exitDy=0;exitPerimeter=0;entryX=0.193;entryY=1.013;entryDx=0;entryDy=0;entryPerimeter=0;" parent="1" source="oan6AdR5b0zMUQuaqNL_-24" target="oan6AdR5b0zMUQuaqNL_-23" edge="1">
          <mxGeometry width="50" height="50" relative="1" as="geometry">
            <mxPoint x="440" y="350" as="sourcePoint" />
            <mxPoint x="490" y="300" as="targetPoint" />
          </mxGeometry>
        </mxCell>
        <mxCell id="oan6AdR5b0zMUQuaqNL_-29" value="Docker/Tomcat" style="text;html=1;strokeColor=none;fillColor=none;align=center;verticalAlign=middle;whiteSpace=wrap;rounded=0;" parent="1" vertex="1">
          <mxGeometry x="260" y="170" width="80" height="20" as="geometry" />
        </mxCell>
        <mxCell id="oan6AdR5b0zMUQuaqNL_-30" value="Docker/Tomcat" style="text;html=1;strokeColor=none;fillColor=none;align=center;verticalAlign=middle;whiteSpace=wrap;rounded=0;" parent="1" vertex="1">
          <mxGeometry x="260" y="350" width="80" height="20" as="geometry" />
        </mxCell>
        <mxCell id="oan6AdR5b0zMUQuaqNL_-31" value="阿里OSS" style="rounded=0;whiteSpace=wrap;html=1;" parent="1" vertex="1">
          <mxGeometry x="400" y="40" width="80" height="30" as="geometry" />
        </mxCell>
        <mxCell id="oan6AdR5b0zMUQuaqNL_-32" value="外卖" style="rounded=0;whiteSpace=wrap;html=1;" parent="1" vertex="1">
          <mxGeometry x="20" y="145" width="90" height="40" as="geometry" />
        </mxCell>
        <mxCell id="oan6AdR5b0zMUQuaqNL_-33" value="供应链" style="rounded=0;whiteSpace=wrap;html=1;" parent="1" vertex="1">
          <mxGeometry x="20" y="215" width="90" height="40" as="geometry" />
        </mxCell>
        <mxCell id="oan6AdR5b0zMUQuaqNL_-34" value="扫码点餐&lt;br&gt;小程序" style="rounded=0;whiteSpace=wrap;html=1;" parent="1" vertex="1">
          <mxGeometry x="20" y="325" width="90" height="40" as="geometry" />
        </mxCell>
        <mxCell id="oan6AdR5b0zMUQuaqNL_-35" value="第三方&lt;br&gt;（口碑、非码）" style="rounded=0;whiteSpace=wrap;html=1;" parent="1" vertex="1">
          <mxGeometry x="20" y="395" width="90" height="40" as="geometry" />
        </mxCell>
        <mxCell id="oan6AdR5b0zMUQuaqNL_-38" value="" style="rounded=0;whiteSpace=wrap;html=1;" parent="1" vertex="1">
          <mxGeometry x="140" y="80" width="20" height="410" as="geometry" />
        </mxCell>
        <mxCell id="oan6AdR5b0zMUQuaqNL_-39" value="网关&lt;br&gt;（认证、路由）" style="text;html=1;strokeColor=none;fillColor=none;align=center;verticalAlign=middle;whiteSpace=wrap;rounded=0;" parent="1" vertex="1">
          <mxGeometry x="105" y="50" width="90" height="20" as="geometry" />
        </mxCell>
        <mxCell id="oan6AdR5b0zMUQuaqNL_-40" value="" style="endArrow=classic;html=1;exitX=1;exitY=0.5;exitDx=0;exitDy=0;entryX=0;entryY=0.5;entryDx=0;entryDy=0;" parent="1" source="oan6AdR5b0zMUQuaqNL_-32" target="oan6AdR5b0zMUQuaqNL_-23" edge="1">
          <mxGeometry width="50" height="50" relative="1" as="geometry">
            <mxPoint x="440" y="310" as="sourcePoint" />
            <mxPoint x="490" y="260" as="targetPoint" />
          </mxGeometry>
        </mxCell>
        <mxCell id="oan6AdR5b0zMUQuaqNL_-41" value="" style="endArrow=classic;html=1;exitX=1;exitY=0.5;exitDx=0;exitDy=0;entryX=-0.007;entryY=0.653;entryDx=0;entryDy=0;entryPerimeter=0;" parent="1" source="oan6AdR5b0zMUQuaqNL_-33" target="oan6AdR5b0zMUQuaqNL_-23" edge="1">
          <mxGeometry width="50" height="50" relative="1" as="geometry">
            <mxPoint x="440" y="310" as="sourcePoint" />
            <mxPoint x="210" y="210" as="targetPoint" />
          </mxGeometry>
        </mxCell>
        <mxCell id="oan6AdR5b0zMUQuaqNL_-42" value="" style="endArrow=classic;html=1;exitX=1;exitY=0.5;exitDx=0;exitDy=0;entryX=0;entryY=0.5;entryDx=0;entryDy=0;" parent="1" source="oan6AdR5b0zMUQuaqNL_-34" target="oan6AdR5b0zMUQuaqNL_-24" edge="1">
          <mxGeometry width="50" height="50" relative="1" as="geometry">
            <mxPoint x="440" y="310" as="sourcePoint" />
            <mxPoint x="490" y="260" as="targetPoint" />
          </mxGeometry>
        </mxCell>
        <mxCell id="oan6AdR5b0zMUQuaqNL_-43" value="" style="endArrow=classic;html=1;exitX=1;exitY=0.5;exitDx=0;exitDy=0;entryX=-0.02;entryY=0.667;entryDx=0;entryDy=0;entryPerimeter=0;" parent="1" source="oan6AdR5b0zMUQuaqNL_-35" target="oan6AdR5b0zMUQuaqNL_-24" edge="1">
          <mxGeometry width="50" height="50" relative="1" as="geometry">
            <mxPoint x="440" y="310" as="sourcePoint" />
            <mxPoint x="490" y="260" as="targetPoint" />
          </mxGeometry>
        </mxCell>
        <mxCell id="oan6AdR5b0zMUQuaqNL_-44" value="" style="endArrow=none;dashed=1;html=1;" parent="1" edge="1">
          <mxGeometry width="50" height="50" relative="1" as="geometry">
            <mxPoint x="180" y="430" as="sourcePoint" />
            <mxPoint x="180" y="120" as="targetPoint" />
          </mxGeometry>
        </mxCell>
        <mxCell id="oan6AdR5b0zMUQuaqNL_-45" value="" style="endArrow=none;dashed=1;html=1;" parent="1" edge="1">
          <mxGeometry width="50" height="50" relative="1" as="geometry">
            <mxPoint x="180" y="120" as="sourcePoint" />
            <mxPoint x="420" y="120" as="targetPoint" />
          </mxGeometry>
        </mxCell>
        <mxCell id="oan6AdR5b0zMUQuaqNL_-46" value="" style="endArrow=none;dashed=1;html=1;" parent="1" edge="1">
          <mxGeometry width="50" height="50" relative="1" as="geometry">
            <mxPoint x="420" y="430" as="sourcePoint" />
            <mxPoint x="420" y="120" as="targetPoint" />
          </mxGeometry>
        </mxCell>
        <mxCell id="oan6AdR5b0zMUQuaqNL_-47" value="" style="endArrow=none;dashed=1;html=1;" parent="1" edge="1">
          <mxGeometry width="50" height="50" relative="1" as="geometry">
            <mxPoint x="180" y="430" as="sourcePoint" />
            <mxPoint x="420" y="430" as="targetPoint" />
          </mxGeometry>
        </mxCell>
        <mxCell id="oan6AdR5b0zMUQuaqNL_-48" value="&lt;font style=&quot;font-size: 18px&quot;&gt;阿里云&lt;/font&gt;" style="text;html=1;strokeColor=none;fillColor=none;align=center;verticalAlign=middle;whiteSpace=wrap;rounded=0;" parent="1" vertex="1">
          <mxGeometry x="354" y="130" width="60" height="20" as="geometry" />
        </mxCell>
        <mxCell id="oan6AdR5b0zMUQuaqNL_-49" value="小量数据上云&lt;br&gt;HTTP" style="endArrow=classic;html=1;entryX=1.013;entryY=0.853;entryDx=0;entryDy=0;entryPerimeter=0;" parent="1" target="oan6AdR5b0zMUQuaqNL_-23" edge="1">
          <mxGeometry width="50" height="50" relative="1" as="geometry">
            <mxPoint x="500" y="221" as="sourcePoint" />
            <mxPoint x="490" y="270" as="targetPoint" />
          </mxGeometry>
        </mxCell>
        <mxCell id="oan6AdR5b0zMUQuaqNL_-50" value="" style="endArrow=classic;html=1;exitX=0.383;exitY=-0.013;exitDx=0;exitDy=0;exitPerimeter=0;" parent="1" source="oan6AdR5b0zMUQuaqNL_-5" target="oan6AdR5b0zMUQuaqNL_-31" edge="1">
          <mxGeometry width="50" height="50" relative="1" as="geometry">
            <mxPoint x="440" y="320" as="sourcePoint" />
            <mxPoint x="490" y="270" as="targetPoint" />
          </mxGeometry>
        </mxCell>
        <mxCell id="oan6AdR5b0zMUQuaqNL_-51" value="上传txt文件（大JSON）" style="text;html=1;align=center;verticalAlign=middle;resizable=0;points=[];labelBackgroundColor=#ffffff;" parent="oan6AdR5b0zMUQuaqNL_-50" vertex="1" connectable="0">
          <mxGeometry x="0.268" y="-2" relative="1" as="geometry">
            <mxPoint x="1.94" y="-5.23" as="offset" />
          </mxGeometry>
        </mxCell>
        <mxCell id="oan6AdR5b0zMUQuaqNL_-52" value="" style="endArrow=classic;html=1;exitX=0.19;exitY=1.053;exitDx=0;exitDy=0;exitPerimeter=0;entryX=0.25;entryY=0;entryDx=0;entryDy=0;" parent="1" source="oan6AdR5b0zMUQuaqNL_-31" target="oan6AdR5b0zMUQuaqNL_-29" edge="1">
          <mxGeometry width="50" height="50" relative="1" as="geometry">
            <mxPoint x="440" y="270" as="sourcePoint" />
            <mxPoint x="350" y="150" as="targetPoint" />
          </mxGeometry>
        </mxCell>
        <mxCell id="oan6AdR5b0zMUQuaqNL_-53" value="下载txt文件" style="text;html=1;align=center;verticalAlign=middle;resizable=0;points=[];labelBackgroundColor=#ffffff;" parent="oan6AdR5b0zMUQuaqNL_-52" vertex="1" connectable="0">
          <mxGeometry x="0.3685" relative="1" as="geometry">
            <mxPoint x="67.99" y="-39.52" as="offset" />
          </mxGeometry>
        </mxCell>
        <mxCell id="oan6AdR5b0zMUQuaqNL_-54" value="" style="endArrow=classic;html=1;exitX=0;exitY=0.25;exitDx=0;exitDy=0;entryX=1;entryY=0.75;entryDx=0;entryDy=0;" parent="1" source="oan6AdR5b0zMUQuaqNL_-5" target="oan6AdR5b0zMUQuaqNL_-29" edge="1">
          <mxGeometry width="50" height="50" relative="1" as="geometry">
            <mxPoint x="440" y="270" as="sourcePoint" />
            <mxPoint x="350" y="180" as="targetPoint" />
          </mxGeometry>
        </mxCell>
        <mxCell id="oan6AdR5b0zMUQuaqNL_-55" value="全量补传（OSS地址）&lt;br&gt;HTTP" style="text;html=1;align=center;verticalAlign=middle;resizable=0;points=[];labelBackgroundColor=#ffffff;" parent="oan6AdR5b0zMUQuaqNL_-54" vertex="1" connectable="0">
          <mxGeometry x="-0.1011" relative="1" as="geometry">
            <mxPoint as="offset" />
          </mxGeometry>
        </mxCell>
        <mxCell id="cwbsYmWNuLwK-xhN_HeS-3" value="" style="rounded=0;whiteSpace=wrap;html=1;" vertex="1" parent="1">
          <mxGeometry x="140" y="470" width="290" height="20" as="geometry" />
        </mxCell>
        <mxCell id="cwbsYmWNuLwK-xhN_HeS-4" value="沽清" style="endArrow=classic;html=1;exitX=0;exitY=0.5;exitDx=0;exitDy=0;entryX=0.5;entryY=1;entryDx=0;entryDy=0;" edge="1" parent="1" source="oan6AdR5b0zMUQuaqNL_-13" target="oan6AdR5b0zMUQuaqNL_-24">
          <mxGeometry width="50" height="50" relative="1" as="geometry">
            <mxPoint x="390" y="350" as="sourcePoint" />
            <mxPoint x="440" y="300" as="targetPoint" />
            <Array as="points">
              <mxPoint x="280" y="530" />
            </Array>
          </mxGeometry>
        </mxCell>
      </root>
    </mxGraphModel>
  </diagram>
</mxfile>
